# xmcd
#
# Track frame offsets:
#	150
#	13858
#	30261
#	48216
#	67930
#	85848
#	103301
#	119141
#	130268
#	142079
#
# Disc length: 2062 seconds
# Revision: 0
# Processed by: cddbd v1.5.2PL0 Copyright (c) Steve Scherf et al.
# Submitted via: dBpowerAMP V12.0
#
DISCID=89080c0a
DTITLE=Deer Creek Boys - Chaos Theory
DYEAR=2019
DGENRE=Bluegrass
TTITLE0=A Lot Like The Whippoorwill
TTITLE1=Cecil and Sarah
TTITLE2=Learn To Fly
TTITLE3=Leaving Virginia
TTITLE4=When the Highway Does
TTITLE5=Keep My Faith
TTITLE6=The Arizona Ranger
TTITLE7=Southbound Train
TTITLE8=Tobacco Town
TTITLE9=Bible
EXTD=
EXTT0=
EXTT1=
EXTT2=
EXTT3=
EXTT4=
EXTT5=
EXTT6=
EXTT7=
EXTT8=
EXTT9=
PLAYORDER=
